ffmpeg started on 2016-11-27 at 07:01:16
Report written to "Output/NVENCh264/results/ffmpeg/old_town_cross_2160p50llhq4500k.log"
Command line:
Tools/ffmpeg/ffmpeg -benchmark -y -i Input/y4m/old_town_cross_2160p50.y4m -c:v h264_nvenc -preset llhq -b:v 4500k -an Output/NVENCh264/encoded/old_town_cross_2160p50llhq4500k.mkv
ffmpeg version N-82227-gdb23fde Copyright (c) 2000-2016 the FFmpeg developers
  built with gcc 5.4.0 (Ubuntu 5.4.0-6ubuntu1~16.04.2) 20160609
  configuration: --prefix=/home/jaroslav/ffmpeg_build --pkg-config-flags=--static --extra-cflags=-I/home/jaroslav/ffmpeg_build/include --extra-ldflags=-L/home/jaroslav/ffmpeg_build/lib --bindir=/home/jaroslav/bin --enable-gpl --enable-libass --enable-libfdk-aac --enable-libfreetype --enable-libmp3lame --enable-libopus --enable-libtheora --enable-libvorbis --enable-libvpx --enable-libx264 --enable-libx265 --enable-nvenc --enable-libmfx --enable-libxvid --enable-libgsm --enable-libopencore-amrnb --enable-version3 --enable-nonfree
  libavutil      55. 35.100 / 55. 35.100
  libavcodec     57. 66.101 / 57. 66.101
  libavformat    57. 57.100 / 57. 57.100
  libavdevice    57.  2.100 / 57.  2.100
  libavfilter     6. 66.100 /  6. 66.100
  libswscale      4.  3.100 /  4.  3.100
  libswresample   2.  4.100 /  2.  4.100
  libpostproc    54.  2.100 / 54.  2.100
Input #0, yuv4mpegpipe, from 'Input/y4m/old_town_cross_2160p50.y4m':
  Duration: 00:00:10.00, start: 0.000000, bitrate: 4976642 kb/s
    Stream #0:0: Video: rawvideo (I420 / 0x30323449), yuv420p(progressive), 3840x2160, SAR 1:1 DAR 16:9, 50 fps, 50 tbr, 50 tbn, 50 tbc
[h264_nvenc @ 0x4201120] The variable bitrate rate-control requires the 'qmin' and/or 'qmax' option set.
Output #0, matroska, to 'Output/NVENCh264/encoded/old_town_cross_2160p50llhq4500k.mkv':
  Metadata:
    encoder         : Lavf57.57.100
    Stream #0:0: Video: h264 (h264_nvenc) (Main) (H264 / 0x34363248), yuv420p, 3840x2160 [SAR 1:1 DAR 16:9], q=-1--1, 4500 kb/s, 50 fps, 1k tbn, 50 tbc
    Metadata:
      encoder         : Lavc57.66.101 h264_nvenc
    Side data:
      cpb: bitrate max/min/avg: 0/0/4500000 buffer size: 9000000 vbv_delay: -1
Stream mapping:
  Stream #0:0 -> #0:0 (rawvideo (native) -> h264 (h264_nvenc))
Press [q] to stop, [?] for help
frame=   16 fps=0.0 q=0.0 size=       0kB time=00:00:00.00 bitrate=N/A speed=   0x    frame=   34 fps= 29 q=40.0 size=       1kB time=00:00:00.06 bitrate=  98.0kbits/s speed=0.0526x    frame=   43 fps= 26 q=39.0 size=       1kB time=00:00:00.24 bitrate=  24.8kbits/s speed=0.145x    frame=   53 fps= 24 q=39.0 size=       1kB time=00:00:00.44 bitrate=  13.6kbits/s speed=0.202x    frame=   71 fps= 26 q=36.0 size=       1kB time=00:00:00.80 bitrate=   7.5kbits/s speed=0.297x    frame=   89 fps= 28 q=39.0 size=       1kB time=00:00:01.16 bitrate=   5.1kbits/s speed=0.362x    frame=  107 fps= 29 q=41.0 size=       1kB time=00:00:01.52 bitrate=   3.9kbits/s speed=0.408x    frame=  125 fps= 29 q=37.0 size=       1kB time=00:00:01.88 bitrate=   3.2kbits/s speed=0.443x    frame=  143 fps= 30 q=35.0 size=       1kB time=00:00:02.24 bitrate=   2.7kbits/s speed=0.471x    frame=  161 fps= 31 q=37.0 size=       1kB time=00:00:02.60 bitrate=   2.3kbits/s speed=0.493x    frame=  179 fps= 31 q=35.0 size=       1kB time=00:00:02.96 bitrate=   2.0kbits/s speed=0.512x    frame=  197 fps= 31 q=39.0 size=       1kB time=00:00:03.32 bitrate=   1.8kbits/s speed=0.528x    frame=  215 fps= 32 q=39.0 size=       1kB time=00:00:03.68 bitrate=   1.6kbits/s speed=0.541x    frame=  233 fps= 32 q=39.0 size=       1kB time=00:00:04.04 bitrate=   1.5kbits/s speed=0.552x    frame=  242 fps= 31 q=38.0 size=       1kB time=00:00:04.22 bitrate=   1.4kbits/s speed=0.539x    frame=  260 fps= 31 q=34.0 size=       1kB time=00:00:04.58 bitrate=   1.3kbits/s speed=0.549x    frame=  278 fps= 31 q=35.0 size=       1kB time=00:00:04.94 bitrate=   1.2kbits/s speed=0.558x    frame=  296 fps= 32 q=41.0 size=    2640kB time=00:00:05.30 bitrate=4079.2kbits/s speed=0.566x    frame=  314 fps= 32 q=39.0 size=    2640kB time=00:00:05.66 bitrate=3819.8kbits/s speed=0.573x    frame=  332 fps= 32 q=35.0 size=    2640kB time=00:00:06.02 bitrate=3591.4kbits/s speed=0.579x    frame=  350 fps= 32 q=35.0 size=    2640kB time=00:00:06.38 bitrate=3388.8kbits/s speed=0.585x    frame=  368 fps= 32 q=35.0 size=    2640kB time=00:00:06.74 bitrate=3207.8kbits/s speed=0.59x    frame=  386 fps= 32 q=35.0 size=    2640kB time=00:00:07.10 bitrate=3045.2kbits/s speed=0.595x    frame=  404 fps= 32 q=35.0 size=    2640kB time=00:00:07.46 bitrate=2898.2kbits/s speed=0.599x    frame=  422 fps= 33 q=35.0 size=    2640kB time=00:00:07.82 bitrate=2764.8kbits/s speed=0.603x    frame=  440 fps= 33 q=35.0 size=    2640kB time=00:00:08.18 bitrate=2643.2kbits/s speed=0.607x    frame=  458 fps= 33 q=35.0 size=    2640kB time=00:00:08.54 bitrate=2531.7kbits/s speed=0.611x    frame=  476 fps= 33 q=34.0 size=    2640kB time=00:00:08.90 bitrate=2429.3kbits/s speed=0.614x    frame=  494 fps= 33 q=35.0 size=    2640kB time=00:00:09.26 bitrate=2334.9kbits/s speed=0.617x    frame=  500 fps= 33 q=41.0 Lsize=    5431kB time=00:00:09.98 bitrate=4457.2kbits/s speed=0.655x    
video:5426kB audio:0kB subtitle:0kB other streams:0kB global headers:0kB muxing overhead: 0.078844%
bench: utime=1.108s
bench: maxrss=1408632kB
